HIERARCHY
ROOT newVegas:Hips
{
	OFFSET 0.000000 96.479958 0.000000
	CHANNELS 6 Xposition Yposition Zposition Xrotation Yrotation Zrotation
	JOINT newVegas:Pelvis
	{
		OFFSET 0.000000 0.000000 0.000000
		CHANNELS 3 Xrotation Yrotation Zrotation
		JOINT newVegas:LeftUpLeg
		{
			OFFSET 18.735201 -5.666702 -4.541200
			CHANNELS 3 Xrotation Yrotation Zrotation
			JOINT newVegas:LeftLeg
			{
				OFFSET -0.021200 -31.938179 0.493100
				CHANNELS 3 Xrotation Yrotation Zrotation
				JOINT newVegas:LeftFoot
				{
					OFFSET 0.021200 -31.938179 -4.336299
					CHANNELS 3 Xrotation Yrotation Zrotation
					JOINT newVegas:LeftToeBase
					{
						OFFSET 0.943001 -26.722000 15.023500
						CHANNELS 3 Xrotation Yrotation Zrotation
						End Site
						{
							OFFSET 0.000000 30.670183 0.000000
						}
					}
				}
				JOINT newVegas:Left_PantLeg
				{
					OFFSET 0.663870 -9.044666 -1.108900
					CHANNELS 3 Xrotation Yrotation Zrotation
					End Site
					{
						OFFSET 1.415995 20.635357 0.000000
					}
				}
			}
		}
		JOINT newVegas:RightUpLeg
		{
			OFFSET -18.735201 -5.666702 -4.541200
			CHANNELS 3 Xrotation Yrotation Zrotation
			JOINT newVegas:RightLeg
			{
				OFFSET 0.018946 -31.938133 0.493100
				CHANNELS 3 Xrotation Yrotation Zrotation
				JOINT newVegas:RightFoot
				{
					OFFSET -0.018946 -31.938126 -4.336299
					CHANNELS 3 Xrotation Yrotation Zrotation
					JOINT newVegas:RightToeBase
					{
						OFFSET -0.943001 -26.722004 15.023500
						CHANNELS 3 Xrotation Yrotation Zrotation
						End Site
						{
							OFFSET 0.000000 30.670187 0.000000
						}
					}
				}
				JOINT newVegas:Right_PantLeg
				{
					OFFSET -0.661674 -9.044716 -1.108900
					CHANNELS 3 Xrotation Yrotation Zrotation
					End Site
					{
						OFFSET -1.415958 20.635269 0.000000
					}
				}
			}
		}
	}
	JOINT newVegas:Spine
	{
		OFFSET 0.000000 10.199997 -0.299500
		CHANNELS 3 Xrotation Yrotation Zrotation
		JOINT newVegas:Spine1
		{
			OFFSET 0.000000 11.900002 -1.516600
			CHANNELS 3 Xrotation Yrotation Zrotation
			JOINT newVegas:Spine2
			{
				OFFSET 0.000000 13.600006 -2.842500
				CHANNELS 3 Xrotation Yrotation Zrotation
				JOINT newVegas:Neck
				{
					OFFSET 0.000000 9.624100 -2.890100
					CHANNELS 3 Xrotation Yrotation Zrotation
					JOINT newVegas:Head
					{
						OFFSET 0.000000 14.068802 -1.351900
						CHANNELS 3 Xrotation Yrotation Zrotation
						JOINT newVegas:Hair_Back
						{
							OFFSET 0.000000 3.231903 -17.524799
							CHANNELS 3 Xrotation Yrotation Zrotation
							End Site
							{
								OFFSET 0.000000 19.849884 0.000000
							}
						}
						JOINT newVegas:Hair_Front
						{
							OFFSET 0.000000 31.260406 4.573800
							CHANNELS 3 Xrotation Yrotation Zrotation
							JOINT newVegas:Hair_Front1
							{
								OFFSET 0.000000 2.284103 11.993300
								CHANNELS 3 Xrotation Yrotation Zrotation
								JOINT newVegas:Hair_Front2
								{
									OFFSET 0.000000 2.284103 11.993300
									CHANNELS 3 Xrotation Yrotation Zrotation
									End Site
									{
										OFFSET 0.000000 12.208862 0.000000
									}
								}
							}
						}
						JOINT newVegas:Jowel
						{
							OFFSET 0.000000 -7.458206 6.864100
							CHANNELS 3 Xrotation Yrotation Zrotation
							End Site
							{
								OFFSET 0.000000 19.849884 0.000000
							}
						}
					}
				}
				JOINT newVegas:LeftShoulder
				{
					OFFSET 15.263000 10.923401 -0.547700
					CHANNELS 3 Xrotation Yrotation Zrotation
					JOINT newVegas:LeftArm
					{
						OFFSET 25.438599 -2.830597 -13.032500
						CHANNELS 3 Xrotation Yrotation Zrotation
						JOINT newVegas:LeftForeArm
						{
							OFFSET 29.960503 0.000000 0.000000
							CHANNELS 3 Xrotation Yrotation Zrotation
							JOINT newVegas:LeftHand
							{
								OFFSET 27.849251 0.000000 0.000000
								CHANNELS 3 Xrotation Yrotation Zrotation
								JOINT newVegas:LeftHandThumb1
								{
									OFFSET 4.487587 -3.305161 6.305391
									CHANNELS 3 Xrotation Yrotation Zrotation
									JOINT newVegas:LeftHandThumb2
									{
										OFFSET 5.480453 -3.164139 3.164143
										CHANNELS 3 Xrotation Yrotation Zrotation
										JOINT newVegas:LeftHandThumb3
										{
											OFFSET 5.159721 -2.978973 2.978967
											CHANNELS 3 Xrotation Yrotation Zrotation
											End Site
											{
												OFFSET 2.494507 5.926697 1.738678
											}
										}
									}
								}
								JOINT newVegas:LeftHandIndex1
								{
									OFFSET 18.578728 -0.527832 5.208049
									CHANNELS 3 Xrotation Yrotation Zrotation
									JOINT newVegas:LeftHandIndex2
									{
										OFFSET 3.192009 0.000000 0.000000
										CHANNELS 3 Xrotation Yrotation Zrotation
										JOINT newVegas:LeftHandIndex3
										{
											OFFSET 3.835129 0.000000 0.000000
											CHANNELS 3 Xrotation Yrotation Zrotation
											End Site
											{
												OFFSET -0.034599 3.816971 0.371180
											}
										}
									}
								}
								JOINT newVegas:LeftHandMiddle1
								{
									OFFSET 18.476105 0.000000 0.000000
									CHANNELS 3 Xrotation Yrotation Zrotation
									JOINT newVegas:LeftHandMiddle2
									{
										OFFSET 3.324875 0.000000 0.000000
										CHANNELS 3 Xrotation Yrotation Zrotation
										JOINT newVegas:LeftHandMiddle3
										{
											OFFSET 4.596550 0.000000 0.000000
											CHANNELS 3 Xrotation Yrotation Zrotation
											End Site
											{
												OFFSET 0.057701 4.578827 0.399218
											}
										}
									}
								}
								JOINT newVegas:LeftHandRing1
								{
									OFFSET 17.732719 0.121887 -4.201567
									CHANNELS 3 Xrotation Yrotation Zrotation
									JOINT newVegas:LeftHandRing2
									{
										OFFSET 2.733170 0.000000 0.000000
										CHANNELS 3 Xrotation Yrotation Zrotation
										JOINT newVegas:LeftHandRing3
										{
											OFFSET 3.178268 0.000000 0.000000
											CHANNELS 3 Xrotation Yrotation Zrotation
											End Site
											{
												OFFSET 0.119102 3.170624 0.185394
											}
										}
									}
								}
								JOINT newVegas:LeftHandPinky1
								{
									OFFSET 15.989624 -0.606689 -7.535461
									CHANNELS 3 Xrotation Yrotation Zrotation
									JOINT newVegas:LeftHandPinky2
									{
										OFFSET 2.538986 0.000000 0.000000
										CHANNELS 3 Xrotation Yrotation Zrotation
										JOINT newVegas:LeftHandPinky3
										{
											OFFSET 2.593102 0.000000 0.000000
											CHANNELS 3 Xrotation Yrotation Zrotation
											End Site
											{
												OFFSET -0.150902 2.584198 0.152708
											}
										}
									}
								}
							}
							JOINT newVegas:Left_Sleeve
							{
								OFFSET 0.267448 -0.649796 0.577675
								CHANNELS 3 Xrotation Yrotation Zrotation
								End Site
								{
									OFFSET 0.000000 15.991241 0.000000
								}
							}
							JOINT newVegas:Left_CapeC
							{
								OFFSET 15.715958 -8.608795 -6.935905
								CHANNELS 3 Xrotation Yrotation Zrotation
								JOINT newVegas:Left_CapeC1
								{
									OFFSET 0.000000 -8.688499 0.000000
									CHANNELS 3 Xrotation Yrotation Zrotation
									End Site
									{
										OFFSET 0.000000 8.688499 0.000000
									}
								}
							}
						}
						JOINT newVegas:Left_CapeB
						{
							OFFSET 26.118385 -8.608795 -7.079235
							CHANNELS 3 Xrotation Yrotation Zrotation
							JOINT newVegas:Left_CapeB1
							{
								OFFSET 0.000000 -8.688499 0.000000
								CHANNELS 3 Xrotation Yrotation Zrotation
								End Site
								{
									OFFSET 0.000000 8.688499 0.000000
								}
							}
						}
						JOINT newVegas:Left_CapeA
						{
							OFFSET 5.115639 -8.608795 -10.395809
							CHANNELS 3 Xrotation Yrotation Zrotation
							JOINT newVegas:Left_CapeA1
							{
								OFFSET 0.000000 -8.688499 0.000000
								CHANNELS 3 Xrotation Yrotation Zrotation
								End Site
								{
									OFFSET 0.000000 8.688499 0.000000
								}
							}
						}
					}
				}
				JOINT newVegas:RightShoulder
				{
					OFFSET -15.263000 10.923401 -0.547700
					CHANNELS 3 Xrotation Yrotation Zrotation
					JOINT newVegas:RightArm
					{
						OFFSET -25.438599 -2.830597 -13.032500
						CHANNELS 3 Xrotation Yrotation Zrotation
						JOINT newVegas:RightForeArm
						{
							OFFSET -29.960503 0.000000 0.000000
							CHANNELS 3 Xrotation Yrotation Zrotation
							JOINT newVegas:RightHand
							{
								OFFSET -27.849251 0.000000 0.000000
								CHANNELS 3 Xrotation Yrotation Zrotation
								JOINT newVegas:RightHandThumb1
								{
									OFFSET -4.487587 -3.305161 6.305391
									CHANNELS 3 Xrotation Yrotation Zrotation
									JOINT newVegas:RightHandThumb2
									{
										OFFSET -5.480453 -3.164139 3.164143
										CHANNELS 3 Xrotation Yrotation Zrotation
										JOINT newVegas:RightHandThumb3
										{
											OFFSET -5.159721 -2.978973 2.978967
											CHANNELS 3 Xrotation Yrotation Zrotation
											End Site
											{
												OFFSET -2.494507 5.926697 1.738678
											}
										}
									}
								}
								JOINT newVegas:RightHandIndex1
								{
									OFFSET -18.578728 -0.527832 5.208049
									CHANNELS 3 Xrotation Yrotation Zrotation
									JOINT newVegas:RightHandIndex2
									{
										OFFSET -3.192009 0.000000 0.000000
										CHANNELS 3 Xrotation Yrotation Zrotation
										JOINT newVegas:RightHandIndex3
										{
											OFFSET -3.835129 0.000000 0.000000
											CHANNELS 3 Xrotation Yrotation Zrotation
											End Site
											{
												OFFSET 0.034599 3.816971 0.371180
											}
										}
									}
								}
								JOINT newVegas:RightHandMiddle1
								{
									OFFSET -18.476105 0.000000 0.000000
									CHANNELS 3 Xrotation Yrotation Zrotation
									JOINT newVegas:RightHandMiddle2
									{
										OFFSET -3.324875 0.000000 0.000000
										CHANNELS 3 Xrotation Yrotation Zrotation
										JOINT newVegas:RightHandMiddle3
										{
											OFFSET -4.596550 0.000000 0.000000
											CHANNELS 3 Xrotation Yrotation Zrotation
											End Site
											{
												OFFSET -0.057701 4.578827 0.399218
											}
										}
									}
								}
								JOINT newVegas:RightHandRing1
								{
									OFFSET -17.732719 0.121887 -4.201567
									CHANNELS 3 Xrotation Yrotation Zrotation
									JOINT newVegas:RightHandRing2
									{
										OFFSET -2.733170 0.000000 0.000000
										CHANNELS 3 Xrotation Yrotation Zrotation
										JOINT newVegas:RightHandRing3
										{
											OFFSET -3.178268 0.000000 0.000000
											CHANNELS 3 Xrotation Yrotation Zrotation
											End Site
											{
												OFFSET -0.119102 3.170624 0.185394
											}
										}
									}
								}
								JOINT newVegas:RightHandPinky1
								{
									OFFSET -15.989624 -0.606689 -7.535461
									CHANNELS 3 Xrotation Yrotation Zrotation
									JOINT newVegas:RightHandPinky2
									{
										OFFSET -2.538986 0.000000 0.000000
										CHANNELS 3 Xrotation Yrotation Zrotation
										JOINT newVegas:RightHandPinky3
										{
											OFFSET -2.593102 0.000000 0.000000
											CHANNELS 3 Xrotation Yrotation Zrotation
											End Site
											{
												OFFSET 0.150902 2.584198 0.152708
											}
										}
									}
								}
							}
							JOINT newVegas:Right_CapeC
							{
								OFFSET -15.715958 -8.608795 -6.935905
								CHANNELS 3 Xrotation Yrotation Zrotation
								JOINT newVegas:Right_CapeC1
								{
									OFFSET 0.000000 -8.688499 0.000000
									CHANNELS 3 Xrotation Yrotation Zrotation
									End Site
									{
										OFFSET 0.000000 8.688499 0.000000
									}
								}
							}
							JOINT newVegas:Right_Sleeve
							{
								OFFSET -0.267448 -0.649994 0.577675
								CHANNELS 3 Xrotation Yrotation Zrotation
								End Site
								{
									OFFSET 0.000000 15.991302 0.000000
								}
							}
						}
						JOINT newVegas:Right_CapeA
						{
							OFFSET -5.115540 -8.608795 -10.395824
							CHANNELS 3 Xrotation Yrotation Zrotation
							JOINT newVegas:Right_CapeA1
							{
								OFFSET 0.000000 -8.688499 0.000000
								CHANNELS 3 Xrotation Yrotation Zrotation
								End Site
								{
									OFFSET 0.000000 8.688499 0.000000
								}
							}
						}
						JOINT newVegas:Right_CapeB
						{
							OFFSET -26.118187 -8.608795 -7.079266
							CHANNELS 3 Xrotation Yrotation Zrotation
							JOINT newVegas:Right_CapeB1
							{
								OFFSET 0.000000 -8.688499 0.000000
								CHANNELS 3 Xrotation Yrotation Zrotation
								End Site
								{
									OFFSET 0.000000 8.688499 0.000000
								}
							}
						}
					}
				}
				JOINT newVegas:Left_Collar
				{
					OFFSET 18.625099 8.655502 8.828100
					CHANNELS 3 Xrotation Yrotation Zrotation
					JOINT newVegas:Left_Collar1
					{
						OFFSET 14.783401 10.540405 -1.259500
						CHANNELS 3 Xrotation Yrotation Zrotation
						End Site
						{
							OFFSET 0.000000 18.199875 0.000000
						}
					}
				}
				JOINT newVegas:Collar_Back
				{
					OFFSET 0.000000 15.630707 -20.132601
					CHANNELS 3 Xrotation Yrotation Zrotation
					End Site
					{
						OFFSET 0.000000 22.523010 0.000000
					}
				}
				JOINT newVegas:Left_Peck
				{
					OFFSET 17.239599 -5.132599 25.482599
					CHANNELS 3 Xrotation Yrotation Zrotation
					End Site
					{
						OFFSET 0.000000 22.523010 0.000000
					}
				}
				JOINT newVegas:Right_Peck
				{
					OFFSET -17.239599 -5.132202 25.482599
					CHANNELS 3 Xrotation Yrotation Zrotation
					End Site
					{
						OFFSET 0.000000 22.523010 0.000000
					}
				}
				JOINT newVegas:Right_Collar
				{
					OFFSET -18.625099 8.655792 8.828100
					CHANNELS 3 Xrotation Yrotation Zrotation
					JOINT newVegas:Right_Collar1
					{
						OFFSET -14.783401 10.539993 -1.259500
						CHANNELS 3 Xrotation Yrotation Zrotation
						End Site
						{
							OFFSET 0.000000 18.199631 0.000000
						}
					}
				}
			}
		}
		JOINT newVegas:Belly
		{
			OFFSET 0.000000 -6.540398 9.014299
			CHANNELS 3 Xrotation Yrotation Zrotation
			End Site
			{
				OFFSET 0.000000 11.566666 0.000000
			}
		}
	}
	JOINT newVegas:ElvisFacialAnim_Joint
	{
		OFFSET 1.000000 -95.330101 -8.825800
		CHANNELS 3 Xrotation Yrotation Zrotation
		End Site
		{
			OFFSET 0.000000 35.315800 0.000000
		}
	}
}
MOTION
Frames: 4
Frame Time: 0.033333
-0.783874 47.327782 6.885499 -3.720549 14.501277 0.435629 0.000000 0.000001 -0.000000 -120.815022 -16.292957 2.268322 140.309503 -3.801074 -2.795176 3.790314 -14.284023 -3.654597 0.000000 0.000001 -0.000000 -0.000001 -0.000003 -0.000000 -109.275097 27.039460 -11.590309 144.391005 4.046756 2.677807 -1.534838 16.021064 10.698378 -0.000001 0.000000 0.000000 0.000001 -0.000002 -0.000003 9.955679 1.515732 -0.728106 19.942081 2.913447 -1.770106 19.942069 2.913443 -1.770101 0.878592 -0.892042 -1.009311 0.878530 -0.892051 -1.009290 -0.000000 -0.000001 0.000001 0.878548 -0.892056 -1.009303 0.878660 -0.892035 -1.009295 -0.000003 0.000000 0.000001 -0.000000 -0.000001 0.000002 -0.608395 -2.835605 9.038114 11.555943 23.999956 -79.947767 0.119596 -71.640529 -0.443191 73.166469 15.557025 7.935798 1.343920 21.136483 -22.243167 2.328978 21.182264 -6.275556 0.000002 -0.000002 0.000000 2.372929 15.282579 -37.939816 -1.299838 0.470476 -13.945472 -0.000000 -0.000002 -0.000000 7.617687 12.037501 -51.311482 -1.570877 -1.166080 -17.966835 -0.000001 0.000002 0.000000 14.381865 6.469556 -63.718746 0.784858 -1.862174 -22.287013 0.000001 0.000001 -0.000002 16.011382 8.097850 -62.609018 -0.177116 -1.655712 -14.014696 0.000003 -0.000003 0.000003 -0.000001 0.000001 -0.000001 -0.000001 0.000001 -0.000001 -0.000001 0.000001 -0.000001 -0.000001 0.000001 0.000000 -0.000001 0.000000 0.000000 -0.000001 0.000001 0.000000 -0.000003 -0.000000 0.000000 1.217047 -6.517222 1.828317 43.768245 31.786724 55.174405 0.864341 61.732930 -0.179541 29.118671 2.178865 -26.431799 -16.987307 -11.456170 7.102107 6.675029 -10.614648 2.967588 0.000000 -0.000001 -0.000002 -7.731898 -3.169630 38.998444 0.206547 -0.884362 22.439220 -0.000000 -0.000000 0.000004 -2.956425 -0.837037 37.900870 -0.475375 1.736085 29.594793 -0.000001 0.000001 -0.000002 3.335364 1.070464 40.743158 -1.026559 3.213555 31.148955 -0.000000 -0.000003 -0.000001 3.948097 3.264960 39.622771 -0.988052 4.467761 26.069087 -0.000000 0.000003 -0.000003 0.000004 0.000000 0.000001 0.000001 0.000001 -0.000001 0.000004 0.000000 0.000001 0.000000 0.000003 0.000004 0.000001 0.000003 0.000004 0.000000 0.000003 0.000004 0.000001 0.000003 0.000006 0.000001 0.000000 0.000000 0.000001 0.000000 0.000000 0.000001 0.000000 0.000000 0.000001 0.000000 0.000000 0.000001 0.000000 0.000000 0.000001 0.000000 0.000000 0.000001 0.000000 0.000000 -0.000001 0.000000 0.000000 0.000000 0.000001 -0.000000 
-0.049948 46.653221 7.113979 -3.641293 12.467214 0.884278 0.000000 0.000001 0.000000 -121.944504 -14.784571 3.102665 141.940238 -3.613579 -2.728142 4.907031 -12.472581 -2.726525 0.000001 0.000000 0.000000 0.000001 0.000002 -0.000000 -113.798813 30.715036 -8.494706 144.090122 6.292144 3.055045 2.637596 15.475668 12.259344 0.000002 -0.000000 0.000000 0.000001 0.000000 -0.000000 9.914441 1.507770 -0.590916 19.854991 2.932000 -1.463744 19.854965 2.932000 -1.463740 0.868195 -0.922037 -1.066912 0.868197 -0.922039 -1.066912 0.000002 -0.000001 0.000001 0.868278 -0.922057 -1.066911 0.868173 -0.922033 -1.066913 0.000000 0.000001 -0.000000 0.000002 -0.000001 0.000001 -0.634912 -1.112281 9.052044 9.660602 18.891029 -78.413181 0.266302 -65.888847 -0.344641 69.287304 18.738624 -1.902697 -1.207207 17.841972 -18.360706 2.174411 20.823608 -6.172723 0.000002 0.000000 -0.000004 2.151509 14.821767 -21.680626 -1.452439 0.477962 -13.632072 0.000003 -0.000000 -0.000001 8.321751 12.752904 -35.682059 -1.712687 -1.119141 -17.655925 -0.000002 0.000001 0.000001 15.243130 7.247384 -47.788071 0.937860 -1.886997 -22.495667 -0.000003 0.000003 0.000002 17.436754 9.514800 -47.147659 -0.256081 -1.631400 -13.944486 0.000005 0.000002 -0.000001 -0.000000 0.000000 0.000001 -0.000000 0.000000 0.000001 -0.000000 -0.000000 0.000001 -0.000001 -0.000002 -0.000000 -0.000001 -0.000003 0.000001 -0.000001 -0.000002 -0.000000 -0.000003 -0.000003 -0.000000 1.161190 -6.673224 1.347606 43.294199 28.433511 53.597498 0.705375 65.183979 -0.060206 28.170818 2.159805 -22.400473 -16.353443 -12.095439 7.347264 6.712323 -10.675139 2.968689 0.000001 0.000000 -0.000000 -7.682431 -3.256870 41.188571 0.306704 -1.055620 27.709934 -0.000000 -0.000001 0.000002 -3.061107 -0.714798 39.854687 -0.646555 2.004475 34.810787 0.000001 -0.000002 -0.000001 3.179598 1.240494 42.334609 -1.324396 3.666274 36.146608 0.000000 0.000001 0.000001 3.726131 3.525475 41.047190 -1.426774 5.275479 31.271307 0.000001 0.000005 0.000001 -0.000003 0.000001 0.000000 0.000001 -0.000001 0.000002 -0.000003 0.000000 0.000001 -0.000003 -0.000002 0.000003 -0.000003 -0.000001 0.000003 -0.000003 -0.000002 0.000003 -0.000003 -0.000001 0.000004 -0.000001 -0.000001 -0.000000 -0.000001 -0.000001 -0.000000 -0.000001 -0.000001 -0.000000 -0.000001 -0.000001 -0.000000 -0.000001 -0.000001 -0.000000 -0.000001 -0.000001 -0.000000 -0.000001 -0.000001 -0.000000 -0.000000 0.000000 -0.000000 0.000000 0.000001 0.000000 
0.699116 46.038704 7.340899 -3.369315 10.254711 1.139095 -0.000000 0.000000 0.000000 -123.153857 -13.540958 3.424624 143.539171 -3.332205 -2.638155 5.647499 -10.560540 -2.429730 -0.000000 -0.000001 -0.000000 0.000000 -0.000001 0.000001 -118.350622 33.631551 -5.217736 143.372255 8.563643 3.464201 6.482270 14.866511 13.868960 0.000000 0.000000 0.000000 0.000002 0.000000 -0.000000 9.878618 1.438387 -0.495768 19.778360 2.826942 -1.228853 19.778343 2.826940 -1.228851 0.833054 -0.937809 -1.081882 0.833043 -0.937810 -1.081877 0.000002 -0.000002 -0.000000 0.833048 -0.937815 -1.081878 0.833122 -0.937795 -1.081887 -0.000001 0.000001 -0.000000 0.000002 -0.000002 0.000000 -0.545834 0.849068 8.572021 7.205647 13.406191 -76.063425 0.300293 -61.729727 -0.337885 64.424605 18.823605 -6.589958 -5.695530 12.032231 -11.817452 2.021824 20.468871 -6.071877 0.000004 0.000002 0.000001 2.133468 14.772519 -14.431193 -1.567823 0.482554 -13.395331 -0.000000 0.000001 -0.000002 8.704341 13.305710 -28.459286 -1.820094 -1.084715 -17.420942 0.000000 0.000000 0.000001 15.791809 7.751604 -40.638987 1.120036 -1.925004 -22.776121 0.000000 -0.000001 0.000001 17.936061 10.277443 -39.780251 -0.468468 -1.615986 -14.150984 -0.000001 -0.000003 -0.000001 0.000000 -0.000000 0.000002 0.000000 -0.000000 0.000002 -0.000000 -0.000000 0.000002 0.000002 -0.000004 -0.000002 0.000002 -0.000005 -0.000001 0.000002 -0.000004 -0.000002 0.000002 -0.000005 -0.000002 1.113950 -6.578926 1.076522 41.693906 24.900240 52.068451 0.500912 68.818479 0.103377 27.044006 1.618892 -17.812071 -15.777274 -12.799219 7.579198 6.746014 -10.729791 2.969717 0.000000 -0.000002 0.000003 -7.648086 -3.276232 43.229234 0.423027 -1.217035 33.091416 -0.000001 -0.000001 0.000000 -3.153578 -0.744446 41.770876 -0.845931 2.265536 40.143371 0.000001 -0.000002 -0.000001 3.046188 1.202618 44.009129 -1.671624 4.098945 41.284549 0.000000 0.000001 0.000000 3.523874 3.402960 42.653049 -1.950214 6.033478 36.602502 0.000001 -0.000002 -0.000000 -0.000003 -0.000000 0.000000 0.000001 -0.000001 0.000000 -0.000003 -0.000001 -0.000000 -0.000001 -0.000002 0.000000 -0.000000 -0.000002 -0.000000 -0.000001 -0.000002 0.000000 -0.000000 -0.000002 0.000002 0.000002 0.000001 -0.000001 0.000002 0.000001 -0.000001 0.000002 0.000001 -0.000001 0.000002 0.000001 -0.000001 0.000002 0.000001 -0.000001 0.000002 0.000001 -0.000001 0.000002 0.000001 -0.000001 0.000000 0.000001 0.000000 -0.000000 0.000000 0.000000 
1.429525 45.750992 7.555383 -2.836550 8.128291 1.028273 -0.000000 -0.000001 -0.000000 -123.934001 -12.732413 2.861674 144.724100 -2.976754 -2.536629 5.707678 -8.807236 -2.959102 0.000002 -0.000000 0.000000 -0.000000 0.000000 -0.000000 -121.423442 35.079052 -2.531693 142.042895 10.268909 3.811714 9.152779 14.291091 15.382122 -0.000000 0.000000 0.000000 0.000000 0.000000 0.000000 9.869572 1.287288 -0.448484 19.755282 2.565027 -1.076087 19.755281 2.565029 -1.076087 0.756308 -0.948682 -0.997117 0.756323 -0.948673 -0.997128 0.000002 0.000000 0.000000 0.756320 -0.948685 -0.997123 0.756277 -0.948670 -0.997121 -0.000002 -0.000000 -0.000001 0.000002 0.000000 0.000001 -0.345067 3.066069 7.453877 5.023161 7.107821 -73.345105 0.281073 -60.549757 -0.351483 59.595108 19.573823 -7.669269 -10.041888 6.259965 -6.123516 1.872361 20.120687 -5.973732 0.000001 -0.000005 -0.000005 2.145798 14.804816 -9.085689 -1.635739 0.484822 -13.256097 -0.000001 0.000000 -0.000002 9.006790 13.826294 -23.030097 -1.883383 -1.064913 -17.282725 -0.000001 0.000001 0.000000 16.239285 8.187945 -35.350549 1.337377 -1.980306 -23.144738 0.000002 -0.000001 0.000001 18.274525 10.819932 -34.175951 -0.759983 -1.615103 -14.631148 -0.000001 -0.000003 0.000002 0.000000 0.000000 -0.000000 0.000000 0.000000 -0.000000 0.000000 0.000000 -0.000000 -0.000002 -0.000002 -0.000001 -0.000002 -0.000003 -0.000001 -0.000002 -0.000002 -0.000001 -0.000002 -0.000003 -0.000001 1.112730 -6.312617 1.249258 38.008999 21.733621 50.806113 0.244130 71.407476 0.322390 25.799918 0.995075 -12.878108 -15.277200 -13.523469 7.765831 6.776247 -10.778811 2.970670 0.000000 0.000002 -0.000007 -7.629917 -3.244935 44.877881 0.542814 -1.357942 38.157904 -0.000000 -0.000001 -0.000001 -3.216400 -0.870772 43.428351 -1.056172 2.498027 45.182029 0.000000 -0.000002 -0.000000 2.951025 1.038093 45.604599 -2.040558 4.479132 46.212763 0.000000 -0.000001 0.000001 3.369100 3.054509 44.281209 -2.506041 6.679614 41.646051 0.000001 0.000002 0.000000 -0.000001 0.000000 -0.000000 -0.000001 -0.000000 -0.000000 -0.000001 0.000000 -0.000000 -0.000001 0.000002 -0.000002 -0.000001 0.000002 -0.000003 -0.000001 0.000002 -0.000002 -0.000000 0.000002 -0.000001 0.000000 -0.000002 0.000001 0.000000 -0.000002 0.000001 0.000000 -0.000002 0.000001 0.000000 -0.000002 0.000001 0.000000 -0.000002 0.000001 0.000000 -0.000002 0.000001 0.000000 -0.000002 0.000001 -0.000000 -0.000000 -0.000000 -0.000000 -0.000001 -0.000000 
